<?xml version="1.0" encoding="UTF-8"?>
<svg xmlns="http://www.w3.org/2000/svg" id="Layer_1" data-name="Layer 1" width="363.17" height="273.36" viewBox="0 0 363.17 273.36">
  <title>logo-top</title>
  <path d="M836,198V311l-31.94,18.09L772,347.17c-.64.34-1.2.9-2,.64-1.94-1.12-3.74-2.28-5.88-3.37a2,2,0,0,1-1.16-1.91V256.4c0-1.12.23-1.54,1.43-1.5H806c1.09,0,1.43.26,1.43,1.35V293.7a1.64,1.64,0,0,1-1,1.68c-4.27,2.4-8.58,4.8-12.81,7.27-1.35.75-1.39.22-1.39-.9v-29.7c0-1.49-.3-2-1.87-1.94H779.16c-.86,0-1.28,0-1.28,1.16v54.6a2.17,2.17,0,0,0,.19.41l3.75-2c12.65-7.16,25.27-14.31,38-21.42a2.17,2.17,0,0,0,1.23-2.21V214.5c0-1.2-.22-1.61-1.49-1.61H721.41c-1.16,0-1.57.22-1.57,1.53v86.43c0,.6-.19,1.27.6,1.72l13.11,7.49V227.83c0-1.54.41-1.91,1.91-1.91h70c1.61,0,2,.41,1.95,2v11.46c0,1.35-.37,1.65-1.65,1.65H750.7c-1.58,0-2,.34-2,2v93.06l-43.78-25V198H836Z" transform="translate(-588.88 -197.98)" style="fill:#3247f2"></path>
  <path d="M589,378.52h32.88l8,8.08V405l-8.09,8.17H599.33v17.82H589.15Zm28.23,26.21,2.62-2.62V389.86l-2.62-2.66H599.18v17.53Z" transform="translate(-588.88 -197.98)" style="fill:#100d13"></path>
  <path d="M677.82,413.57v17.37H667.64V416l-4.5-5H646.82V431H636.63V378.55h32.88l8,8.09v15.88l-5.09,5.17Zm-31-11.24h18l2.62-2.62V389.56l-2.62-2.66h-18Z" transform="translate(-588.88 -197.98)" style="fill:#100d13"></path>
  <path d="M685.69,422.33v-35.2l8.61-8.61h27.07l8.62,8.61v35.2l-8.62,8.61h-27Zm30.18,0,3.74-3.75V391.17l-3.74-3.74H699.69L696,391.17v27.41l3.74,3.75Z" transform="translate(-588.88 -197.98)" style="fill:#100d13"></path>
  <path d="M748.9,387.13H733.25v-8.61h41.49v8.61H759.08v43.81H748.9Z" transform="translate(-588.88 -197.98)" style="fill:#100d13"></path>
  <path d="M780,378.52h37.9v8.61H790.17v13.26h25.54v8.46H790.17v13.48h27.71v8.61H780Z" transform="translate(-588.88 -197.98)" style="fill:#100d13"></path>
  <path d="M823.87,422.33v-35.2l8.61-8.61H858.1l8.46,8.46v8H856.38v-4.27l-3.53-3.52h-15L834.13,391v27.41l3.75,3.75h15l3.53-3.52v-4.24h10.18v8l-8.46,8.46H832.48Z" transform="translate(-588.88 -197.98)" style="fill:#100d13"></path>
  <path d="M884.46,387.13H868.81v-8.61H910.3v8.61H894.65v43.81H884.46Z" transform="translate(-588.88 -197.98)" style="fill:#100d13"></path>
  <path d="M923.59,378.52h9.29l19.18,52.42H941.72l-4.27-11.61H919l-4.27,11.61H904.42ZM935.2,411l-7-19.93h0L921.5,411Z" transform="translate(-588.88 -197.98)" style="fill:#100d13"></path>
  <path d="M588.88,464.35V438.66H604.8a8.58,8.58,0,0,1,3.74.75,5.54,5.54,0,0,1,2.51,2.13,6.17,6.17,0,0,1,.86,3.3,6.89,6.89,0,0,1-.52,2.69,5.59,5.59,0,0,1-1.54,2.06,6.66,6.66,0,0,1-2.24,1.28h0a7.1,7.1,0,0,1,2.62,1.08,5.92,5.92,0,0,1,1.8,2.14,7.38,7.38,0,0,1,.63,3.18,6.87,6.87,0,0,1-1,4,6.54,6.54,0,0,1-2.84,2.25,11.67,11.67,0,0,1-4,.71Zm3.75-14.76h11a5.55,5.55,0,0,0,2.28-.48,4.33,4.33,0,0,0,1.58-1.39,3.79,3.79,0,0,0,.56-2.1,3.37,3.37,0,0,0-1.09-2.81,4.32,4.32,0,0,0-2.88-.89H592.63Zm0,11.5h11.76a4.86,4.86,0,0,0,3.14-1,3.71,3.71,0,0,0,1.2-3.1,4.39,4.39,0,0,0-.52-2.33,3.42,3.42,0,0,0-1.54-1.42,6.12,6.12,0,0,0-2.47-.45H592.63Z" transform="translate(-588.88 -197.98)" style="fill:#666"></path>
  <path d="M626.82,464.8a12.43,12.43,0,0,1-5.54-1.13,7.69,7.69,0,0,1-3.49-3.37,14.54,14.54,0,0,1,0-11.57,7.5,7.5,0,0,1,3.45-3.41,12.76,12.76,0,0,1,5.58-1.12,11.76,11.76,0,0,1,5.47,1.12,7.54,7.54,0,0,1,3.25,3.22,10.86,10.86,0,0,1,1.09,5.13v1.88H620.26a8.51,8.51,0,0,0,.9,3.74,4.68,4.68,0,0,0,2.29,2.1,8.49,8.49,0,0,0,3.52.67,7.16,7.16,0,0,0,2.47-.37,5.49,5.49,0,0,0,1.87-.94,4.85,4.85,0,0,0,1.28-1.35,3.44,3.44,0,0,0,.48-1.68h3.45a6.15,6.15,0,0,1-.64,2.73,5.84,5.84,0,0,1-1.8,2.29,8.5,8.5,0,0,1-3,1.57A14.64,14.64,0,0,1,626.82,464.8Zm-6.56-12H633a6.57,6.57,0,0,0-.49-2.73,4.51,4.51,0,0,0-1.35-1.8,5.07,5.07,0,0,0-1.94-1,8.33,8.33,0,0,0-2.44-.3,7.89,7.89,0,0,0-3.25.6,5,5,0,0,0-2.25,1.91A7.49,7.49,0,0,0,620.26,452.81Z" transform="translate(-588.88 -197.98)" style="fill:#666"></path>
  <path d="M651.31,471V444.76H654l.34,3h.26a7.12,7.12,0,0,1,3-2.58,9,9,0,0,1,3.93-.83,10,10,0,0,1,4.79,1.09,6.9,6.9,0,0,1,3,3.41,13.89,13.89,0,0,1,1.05,5.87,13.41,13.41,0,0,1-1.05,5.7,7.45,7.45,0,0,1-2.95,3.4,9.06,9.06,0,0,1-4.61,1.13,10.92,10.92,0,0,1-2.73-.34,7.43,7.43,0,0,1-2.33-1,7.14,7.14,0,0,1-1.79-1.72h-.23v9.25Zm9.59-9.17a6.67,6.67,0,0,0,3.25-.75,4.92,4.92,0,0,0,2-2.25,10.14,10.14,0,0,0,.67-3.93v-.75a9.28,9.28,0,0,0-.71-4,4.52,4.52,0,0,0-2.06-2.25,7,7,0,0,0-3.18-.67,7.16,7.16,0,0,0-3.34.74,5.3,5.3,0,0,0-2.09,2.33,10,10,0,0,0-.72,4v.52a9.75,9.75,0,0,0,.49,3.3,5.38,5.38,0,0,0,1.27,2.13,5.18,5.18,0,0,0,2,1.2,7.48,7.48,0,0,0,2.44.41Z" transform="translate(-588.88 -197.98)" style="fill:#666"></path>
  <path d="M684.3,464.8a12.46,12.46,0,0,1-5.54-1.13,7.72,7.72,0,0,1-3.48-3.37,14.54,14.54,0,0,1,0-11.57,7.52,7.52,0,0,1,3.44-3.41,12.76,12.76,0,0,1,5.58-1.12,11.74,11.74,0,0,1,5.47,1.12,7.62,7.62,0,0,1,3.26,3.22,10.85,10.85,0,0,1,1.08,5.13v1.88h-16.4a8.51,8.51,0,0,0,.9,3.74,4.66,4.66,0,0,0,2.28,2.1,8.55,8.55,0,0,0,3.52.67,7.12,7.12,0,0,0,2.47-.37,5.54,5.54,0,0,0,1.88-.94A4.81,4.81,0,0,0,690,459.4a3.35,3.35,0,0,0,.49-1.68H694a6.28,6.28,0,0,1-.63,2.73,5.93,5.93,0,0,1-1.8,2.29,8.46,8.46,0,0,1-3,1.57A14.71,14.71,0,0,1,684.3,464.8Zm-6.55-12h12.69a6.57,6.57,0,0,0-.48-2.73,4.7,4.7,0,0,0-1.35-1.8,5.18,5.18,0,0,0-2-1,8.31,8.31,0,0,0-2.43-.3,7.9,7.9,0,0,0-3.26.6,5,5,0,0,0-2.25,1.91A7.48,7.48,0,0,0,677.75,452.81Z" transform="translate(-588.88 -197.98)" style="fill:#666"></path>
  <path d="M698.64,464.35v-19.7h2.81l.26,3.44H702a10,10,0,0,1,.9-1.79,4.81,4.81,0,0,1,1.64-1.5,5,5,0,0,1,2.55-.6,5.24,5.24,0,0,1,1.12,0,2.76,2.76,0,0,1,.9.22v3.11h-1.61a5.08,5.08,0,0,0-2.51.53,4.6,4.6,0,0,0-1.65,1.42,6.74,6.74,0,0,0-.89,2.06,8.81,8.81,0,0,0-.3,2.28v10.45Z" transform="translate(-588.88 -197.98)" style="fill:#666"></path>
  <path d="M713.62,464.35V447.49h-3.48v-2.84h3.45V441.8a6.5,6.5,0,0,1,.44-2.43,3.79,3.79,0,0,1,1.5-1.76,5.49,5.49,0,0,1,2.89-.68h2.32l1,.27v2.39h-2.28a2.68,2.68,0,0,0-1.8.49,2,2,0,0,0-.56,1.57v2.81h4.64v2.85h-4.64v16.85Z" transform="translate(-588.88 -197.98)" style="fill:#666"></path>
  <path d="M733.88,464.8a12.46,12.46,0,0,1-5.54-1.13,7.72,7.72,0,0,1-3.48-3.37,12.62,12.62,0,0,1-1.2-5.8,12.38,12.38,0,0,1,1.2-5.77,7.52,7.52,0,0,1,3.44-3.41,12.62,12.62,0,0,1,5.58-1.12,11.74,11.74,0,0,1,5.47,1.12,7.56,7.56,0,0,1,3.26,3.22,10.85,10.85,0,0,1,1.08,5.13v1.88h-16.4a8.51,8.51,0,0,0,.9,3.74,4.66,4.66,0,0,0,2.28,2.1,8.55,8.55,0,0,0,3.52.67,7.21,7.21,0,0,0,2.48-.37,5.58,5.58,0,0,0,1.87-.94,4.67,4.67,0,0,0,1.27-1.35,3.35,3.35,0,0,0,.49-1.68h3.44a6.14,6.14,0,0,1-.63,2.73,5.93,5.93,0,0,1-1.8,2.29,8.46,8.46,0,0,1-3,1.57A14.67,14.67,0,0,1,733.88,464.8Zm-6.55-12H740.1a6.57,6.57,0,0,0-.49-2.73,4.51,4.51,0,0,0-1.35-1.8,5.07,5.07,0,0,0-1.94-1,8.42,8.42,0,0,0-2.44-.3,8,8,0,0,0-3.26.6,5,5,0,0,0-2.24,1.91A7.54,7.54,0,0,0,727.33,452.81Z" transform="translate(-588.88 -197.98)" style="fill:#666"></path>
  <path d="M757.25,464.8a11.63,11.63,0,0,1-5.5-1.17,7.47,7.47,0,0,1-3.38-3.4,13.13,13.13,0,0,1-1.12-5.73,12.85,12.85,0,0,1,1.12-5.73,7.53,7.53,0,0,1,3.38-3.45,12.42,12.42,0,0,1,5.54-1.12,13.16,13.16,0,0,1,3.74.49,8,8,0,0,1,2.85,1.53,6.89,6.89,0,0,1,1.83,2.44,8.42,8.42,0,0,1,.6,3.37h-3.52a5.09,5.09,0,0,0-.71-2.85,4.06,4.06,0,0,0-2-1.61,7.44,7.44,0,0,0-3-.52,7,7,0,0,0-3.34.71A4.9,4.9,0,0,0,751.6,450a8.71,8.71,0,0,0-.79,4.08v.75a8.94,8.94,0,0,0,.79,4,4.9,4.9,0,0,0,2.2,2.32,7.51,7.51,0,0,0,3.45.75,7.35,7.35,0,0,0,3-.56,4.19,4.19,0,0,0,2-1.69,4.86,4.86,0,0,0,.71-2.73h3.41a7.47,7.47,0,0,1-.63,3.26,6.69,6.69,0,0,1-1.8,2.47,7.75,7.75,0,0,1-2.89,1.53A11.87,11.87,0,0,1,757.25,464.8Z" transform="translate(-588.88 -197.98)" style="fill:#666"></path>
  <path d="M776.46,464.8a5,5,0,0,1-2.58-.57,3.22,3.22,0,0,1-1.43-1.57,6.73,6.73,0,0,1-.45-2.55V447.49h-3.14v-2.84h3.22l.67-5.58h2.74v5.58h4.45v2.84h-4.45v12.1a3.35,3.35,0,0,0,.37,1.76,2,2,0,0,0,1.69.6h2.39v2.25a6.47,6.47,0,0,1-1,.3,2.61,2.61,0,0,0-1.28.22Z" transform="translate(-588.88 -197.98)" style="fill:#666"></path>
  <path d="M784,464.35V437.27h3.48v27.08Z" transform="translate(-588.88 -197.98)" style="fill:#666"></path>
  <path d="M794.74,471.31a10.42,10.42,0,0,1-1.58,0l-1.2-.26v-2.43h1.91a6.56,6.56,0,0,0,2.4-.42,3.76,3.76,0,0,0,1.69-1.31,8.78,8.78,0,0,0,1.31-2.43l-8.69-19.7h3.74L798.71,455a15.36,15.36,0,0,1,.74,1.72c.27.71.53,1.46.83,2.17s.52,1.39.75,2h.22a4.85,4.85,0,0,1,.41-1.2c.19-.49.34-1,.53-1.61s.41-1.16.63-1.69.38-1,.53-1.46l3.74-10.07h3.75l-7.49,19.06c-.49,1.2-1,2.25-1.5,3.22a10.57,10.57,0,0,1-1.68,2.4A6.41,6.41,0,0,1,798,470.9,8.19,8.19,0,0,1,794.74,471.31Z" transform="translate(-588.88 -197.98)" style="fill:#666"></path>
  <path d="M831.77,464.8a16.82,16.82,0,0,1-3.74-.42,9.51,9.51,0,0,1-2.92-1.12,4.91,4.91,0,0,1-2.48-4.38,1.21,1.21,0,0,1,0-.38.71.71,0,0,1,0-.29h3.6v.48a2.64,2.64,0,0,0,.82,2,4.85,4.85,0,0,0,2.1,1.05,13.21,13.21,0,0,0,2.81.3,12.55,12.55,0,0,0,2.73-.3,4.69,4.69,0,0,0,2-1,2.07,2.07,0,0,0,.75-1.69,2.21,2.21,0,0,0-.83-1.91,5.74,5.74,0,0,0-2.32-1l-3.37-.71c-1-.23-2-.45-2.88-.71a12,12,0,0,1-2.44-1.05,4.83,4.83,0,0,1-1.61-1.57,4.63,4.63,0,0,1-.6-2.44,4.54,4.54,0,0,1,.6-2.36,4.65,4.65,0,0,1,1.69-1.72,7.53,7.53,0,0,1,2.73-1.09,16.29,16.29,0,0,1,3.75-.37,13.46,13.46,0,0,1,3.74.41,8.34,8.34,0,0,1,2.62,1.12,5.33,5.33,0,0,1,1.61,1.73,4.67,4.67,0,0,1,.53,2.17V450a.76.76,0,0,0,0,.3h-3.52V450a2.55,2.55,0,0,0-.56-1.68,4,4,0,0,0-1.69-1.05,9.16,9.16,0,0,0-2.66-.34,14,14,0,0,0-1.83,0,7.24,7.24,0,0,0-1.61.45,2.93,2.93,0,0,0-1.2.79,1.61,1.61,0,0,0-.45,1.2,1.68,1.68,0,0,0,.82,1.53,5.59,5.59,0,0,0,2.1.86l2.73.64,3.07.67a14,14,0,0,1,2.74,1,5.23,5.23,0,0,1,1.91,1.68,4.68,4.68,0,0,1,.71,2.77,5.18,5.18,0,0,1-2.47,4.72,8.8,8.8,0,0,1-2.89,1.09A16.94,16.94,0,0,1,831.77,464.8Z" transform="translate(-588.88 -197.98)" style="fill:#666"></path>
  <path d="M854.5,464.8a12.46,12.46,0,0,1-5.54-1.13,7.43,7.43,0,0,1-3.48-3.37,12.75,12.75,0,0,1-1.2-5.8,12.38,12.38,0,0,1,1.2-5.77,7.52,7.52,0,0,1,3.44-3.41,12.62,12.62,0,0,1,5.58-1.12,11.74,11.74,0,0,1,5.47,1.12,7.51,7.51,0,0,1,3.26,3.22,10.73,10.73,0,0,1,1.08,5.13v1.88h-16.4a8.51,8.51,0,0,0,.9,3.74,4.66,4.66,0,0,0,2.28,2.1,8.55,8.55,0,0,0,3.52.67,7.21,7.21,0,0,0,2.48-.37,5.58,5.58,0,0,0,1.87-.94,4.67,4.67,0,0,0,1.27-1.35,3.35,3.35,0,0,0,.49-1.68h3.44a6.14,6.14,0,0,1-.63,2.73,6.2,6.2,0,0,1-1.8,2.29,8.46,8.46,0,0,1-3,1.57A14.67,14.67,0,0,1,854.5,464.8Zm-6.55-12h12.69a6.57,6.57,0,0,0-.48-2.73,5,5,0,0,0-1.35-1.8,5.18,5.18,0,0,0-1.95-1,8.31,8.31,0,0,0-2.43-.3,7.9,7.9,0,0,0-3.26.6,5.09,5.09,0,0,0-2.25,1.91A7.48,7.48,0,0,0,848,452.81Z" transform="translate(-588.88 -197.98)" style="fill:#666"></path>
  <path d="M877.87,464.8a11.51,11.51,0,0,1-5.5-1.17,7.45,7.45,0,0,1-3.37-3.4,13,13,0,0,1-1.13-5.73,12.72,12.72,0,0,1,1.13-5.73,7.46,7.46,0,0,1,3.37-3.45,12.28,12.28,0,0,1,5.54-1.12,13.16,13.16,0,0,1,3.74.49,8,8,0,0,1,2.85,1.53,6.77,6.77,0,0,1,1.83,2.44,8.42,8.42,0,0,1,.6,3.37h-3.52a5.09,5.09,0,0,0-.71-2.85,4.27,4.27,0,0,0-2-1.61,7.44,7.44,0,0,0-3-.52,7,7,0,0,0-3.34.71,4.9,4.9,0,0,0-2.24,2.28,8.71,8.71,0,0,0-.79,4.08v.75a8.94,8.94,0,0,0,.79,4,4.88,4.88,0,0,0,2.21,2.32,7.45,7.45,0,0,0,3.44.75,7.71,7.71,0,0,0,3-.56,4.35,4.35,0,0,0,2-1.69,5,5,0,0,0,.72-2.73h3.4a8.27,8.27,0,0,1-.63,3.26,6.69,6.69,0,0,1-1.8,2.47,7.78,7.78,0,0,1-2.88,1.53A12,12,0,0,1,877.87,464.8Z" transform="translate(-588.88 -197.98)" style="fill:#666"></path>
  <path d="M898.47,464.8a7.91,7.91,0,0,1-5.28-1.65,6.76,6.76,0,0,1-1.91-5.43V444.65h3.48v12.51a5.92,5.92,0,0,0,.37,2.32,3,3,0,0,0,1,1.38,3.89,3.89,0,0,0,1.54.72,10.56,10.56,0,0,0,2,.18,6.91,6.91,0,0,0,3-.71A5.85,5.85,0,0,0,905,459a5.29,5.29,0,0,0,.9-3.11V444.65h3.48v19.7h-2.77l-.3-3.22H906a8.45,8.45,0,0,1-2.13,2.17,8,8,0,0,1-2.58,1.16A12.7,12.7,0,0,1,898.47,464.8Z" transform="translate(-588.88 -197.98)" style="fill:#666"></path>
  <path d="M914.83,464.35v-19.7h2.81l.26,3.44h.26a8.58,8.58,0,0,1,.9-1.79,4.57,4.57,0,0,1,1.65-1.5,5,5,0,0,1,2.55-.6,5.24,5.24,0,0,1,1.12,0,2.76,2.76,0,0,1,.9.22v3.11h-1.69a5,5,0,0,0-2.5.53,4.2,4.2,0,0,0-1.65,1.42,6.53,6.53,0,0,0-.9,2.06,8.81,8.81,0,0,0-.3,2.28v10.45Z" transform="translate(-588.88 -197.98)" style="fill:#666"></path>
  <path d="M937.41,464.8a12.46,12.46,0,0,1-5.54-1.13,7.43,7.43,0,0,1-3.48-3.37,12.75,12.75,0,0,1-1.2-5.8,12.38,12.38,0,0,1,1.2-5.77,7.52,7.52,0,0,1,3.44-3.41,12.62,12.62,0,0,1,5.58-1.12,11.86,11.86,0,0,1,5.47,1.12,7.51,7.51,0,0,1,3.26,3.22,11.22,11.22,0,0,1,1.08,5.13v1.88h-16.4a8,8,0,0,0,.9,3.74,4.53,4.53,0,0,0,2.28,2.1,8.57,8.57,0,0,0,3.53.67,7.19,7.19,0,0,0,2.47-.37,6,6,0,0,0,1.87-.94,4.67,4.67,0,0,0,1.27-1.35,3.68,3.68,0,0,0,.49-1.68h3.44a6.81,6.81,0,0,1-.63,2.73,6.6,6.6,0,0,1-1.8,2.29,8.46,8.46,0,0,1-3,1.57A14.67,14.67,0,0,1,937.41,464.8Zm-6.55-12h12.69a6.57,6.57,0,0,0-.48-2.73,5.43,5.43,0,0,0-1.35-1.8,5.11,5.11,0,0,0-2-1,8.31,8.31,0,0,0-2.43-.3,7.9,7.9,0,0,0-3.26.6,5.09,5.09,0,0,0-2.25,1.91A7.07,7.07,0,0,0,930.86,452.81Z" transform="translate(-588.88 -197.98)" style="fill:#666"></path>
</svg>
